<?xml version="1.0" encoding="UTF-8" standalone="no"?>
<!DOCTYPE svg PUBLIC "-//W3C//DTD SVG 1.1//EN" "http://www.w3.org/Graphics/SVG/1.1/DTD/svg11.dtd">
<svg width="100%" height="100%" viewBox="0 0 2367 591" version="1.1" xmlns="http://www.w3.org/2000/svg" xmlns:xlink="http://www.w3.org/1999/xlink" xml:space="preserve" xmlns:serif="http://www.serif.com/" style="fill-rule:evenodd;clip-rule:evenodd;stroke-linejoin:round;stroke-miterlimit:2;">
    <g transform="matrix(1,0,0,1,-1218.72,-5610.24)">
        <g transform="matrix(1,0,0,1,-9864.74,4133.86)">
            <g transform="matrix(1.96327,0,0,1.96327,6322.49,-1406.4)">
                <g>
                    <text x="2391.02px" y="1764.36px" style="font-family:'IBMPlexSans', 'IBM Plex Sans', sans-serif;font-size:400px;">labr<tspan x="3090.22px " y="1764.36px ">e</tspan></text>
                </g>
            </g>
            <g transform="matrix(0.501509,0,0,0.501509,11475.1,883.159)">
                <path d="M3378.14,1184.64L3378.13,1184.64L3378.09,1184.65L3377.85,1184.71L3377.79,1184.72L3377.77,1184.73L3377.67,1184.75L3377.46,1184.81L3377.42,1184.82L3377.4,1184.82L3377.23,1184.86L3377.07,1184.91L3377.05,1184.91C3376.93,1184.94 3376.8,1184.98 3376.68,1185.01C3376.68,1185.01 3376.32,1185.11 3376.32,1185.11L3376.29,1185.12L3376.13,1185.16L3375.95,1185.21L3375.94,1185.21L3375.9,1185.22L3375.69,1185.28L3375.6,1185.31L3375.58,1185.32L3375.51,1185.33L3375.27,1185.4L3375.24,1185.41L3375.22,1185.42C3369.72,1187.04 3364.59,1189.35 3359.92,1192.25L3359.84,1192.3L3359.8,1192.32L3359.79,1192.33L3359.75,1192.35C3351.33,1197.6 3344.04,1204.93 3338.73,1214.13L3060.38,1696.25C3043.12,1726.14 3053.36,1764.37 3083.25,1781.63L3490.29,2016.63L3225.87,2251.17C3200.07,2274.06 3197.7,2313.6 3220.59,2339.4C3243.48,2365.21 3283.02,2367.57 3308.82,2344.68L3637.01,2053.57C3641.43,2049.83 3645.4,2045.4 3648.74,2040.35L3648.8,2040.27L3648.84,2040.21L3648.85,2040.18L3648.91,2040.09C3649.62,2039 3650.3,2037.9 3650.93,2036.78L3929.1,1554.98C3946.36,1525.09 3936.12,1486.86 3906.22,1469.61L3424.11,1191.25C3414.91,1185.94 3404.93,1183.24 3395.01,1182.9L3394.97,1182.9L3394.95,1182.9L3394.91,1182.9L3394.81,1182.9C3389.32,1182.73 3383.72,1183.28 3378.14,1184.64ZM3199.88,1704.62L3497.2,1876.28L3371.54,1407.3L3199.88,1704.62ZM3492.28,1374.95L3617.94,1843.93L3789.6,1546.61L3492.28,1374.95Z" style="fill:url(#_Linear1);"/>
            </g>
        </g>
    </g>
    <defs>
        <linearGradient id="_Linear1" x1="0" y1="0" x2="1" y2="0" gradientUnits="userSpaceOnUse" gradientTransform="matrix(-296.593,-1177.55,1177.55,-296.593,3677.26,2360.42)"><stop offset="0" style="stop-color:rgb(13,40,242);stop-opacity:0.25"/><stop offset="1" style="stop-color:rgb(13,40,242);stop-opacity:1"/></linearGradient>
    </defs>
</svg>
